<?xml version="1.0" encoding="iso-8859-1"?>
<!-- Generator: Adobe Illustrator 19.0.0, SVG Export Plug-In . SVG Version: 6.00 Build 0)  -->
<svg version="1.1" id="Capa_1" xmlns="http://www.w3.org/2000/svg" xmlns:xlink="http://www.w3.org/1999/xlink" x="0px" y="0px"
	 viewBox="0 0 479.75 479.75" style="enable-background:new 0 0 479.75 479.75;" xml:space="preserve">
<g>
	<g>
		<path d="M406.95,323.75l-57.6-104c-1.6-2.4-4-4-7.2-4h-205.6c-3.2,0-5.6,1.6-7.2,4l-57.6,104c-1.6,2.4-1.6,5.6,0,8
			c1.6,2.4,4,4,7.2,4h320.8c4.8,0,8-3.2,8-8C407.75,326.15,407.75,325.35,406.95,323.75z M91.75,319.75l49.6-88h196l48.8,88H91.75z"
			/>
	</g>
</g>
<g>
	<g>
		<path d="M478.15,467.75l-71.2-112c-1.6-2.4-4-4-6.4-4H78.95c-2.4,0-5.6,1.6-6.4,4l-71.2,112c-2.4,4-1.6,8.8,2.4,11.2
			c0.8,0,2.4,0.8,4,0.8h464c4.8,0,8-3.2,8-8C479.75,470.15,478.95,468.55,478.15,467.75z M22.15,463.75l60.8-96h312.8l60.8,96H22.15
			z"/>
	</g>
</g>
<g>
	<g>
		<path d="M350.15,187.75l-102.4-184c-2.4-4-8-4.8-11.2-2.4c-0.8,0.8-1.6,1.6-2.4,2.4l-102.4,184c-2.4,4-0.8,8.8,3.2,11.2
			c-0.8,0.8,0.8,0.8,2.4,0.8h205.6c4.8,0,8-3.2,8-8C350.95,190.15,350.95,189.35,350.15,187.75z M150.95,183.75l88.8-159.2
			l88.8,159.2H150.95z"/>
	</g>
</g>
<g>
</g>
<g>
</g>
<g>
</g>
<g>
</g>
<g>
</g>
<g>
</g>
<g>
</g>
<g>
</g>
<g>
</g>
<g>
</g>
<g>
</g>
<g>
</g>
<g>
</g>
<g>
</g>
<g>
</g>
</svg>
